<?xml version="1.0" encoding="UTF-8"?>
<svg width="40px" height="37px" viewBox="0 0 40 37" version="1.1" xmlns="http://www.w3.org/2000/svg" xmlns:xlink="http://www.w3.org/1999/xlink">
    <!-- Generator: Sketch 41.2 (35397) - http://www.bohemiancoding.com/sketch -->
    <title>Connect</title>
    <desc>Created with Sketch.</desc>
    <defs></defs>
    <g id="Page-2-Copy" stroke="none" stroke-width="1" fill="none" fill-rule="evenodd">
        <g id="Bexio-option2" transform="translate(-291.000000, -146.000000)">
            <g id="Connect" transform="translate(281.000000, 135.000000)">
                <path d="M49.5165261,21.0264381 C49.0040848,20.0692232 48.1496049,19.3691101 47.1104488,19.0547376 C46.0712926,18.7401889 44.97187,18.8494439 44.0148314,19.3618851 C43.0577927,19.8745026 42.3575034,20.7289825 42.0431309,21.7681386 C41.833608,22.460322 41.8165148,23.1785856 41.976873,23.8642489 L37.5881697,26.2142889 C36.2533202,24.340213 34.1725409,23.0346157 31.7817945,22.733812 L31.7817945,18.9886559 C33.5119005,18.5220313 34.7889506,16.9399482 34.7889506,15.0644626 C34.7889506,12.8233252 32.9656254,11 30.724488,11 C28.4833505,11 26.6598491,12.8233252 26.6598491,15.0646388 C26.6598491,16.9401245 27.9370754,18.5222075 29.6670052,18.9888321 L29.6670052,22.7336357 C26.6135039,23.1179667 24.0641615,25.1414752 22.9314338,27.8939966 L18.1282663,26.5998534 C18.1293236,25.895511 17.9499339,25.1998033 17.58904,24.5729967 C17.0475228,23.6319939 16.1718967,22.9581372 15.1237535,22.6756601 C12.9590945,22.0923793 10.7248296,23.3789452 10.141725,25.5428993 C9.85924794,26.5912187 10.0019843,27.6867645 10.5435015,28.6275911 C11.0850187,29.5684178 11.9606447,30.2424507 13.008788,30.5249278 C13.3606948,30.6197329 13.717712,30.6666068 14.0727908,30.6666068 C14.7750186,30.6666068 15.4684354,30.4828117 16.0936561,30.1231513 C16.7204626,29.7624335 17.2251503,29.2512258 17.5781145,28.6416886 L22.3814581,29.936008 C22.3296501,30.3132902 22.3005742,30.6976212 22.3005742,31.0890008 C22.3005742,33.0310967 22.9629768,34.8204119 24.0713865,36.2468946 L20.5496745,39.7686065 C18.9964912,38.8762398 16.9770357,39.0885822 15.6511733,40.4140922 C14.0664469,41.9988185 14.0664469,44.577413 15.6511733,46.1623155 C16.4436245,46.9547668 17.4843666,47.3509043 18.5252849,47.3509043 C19.566027,47.3509043 20.6069453,46.9547668 21.3993966,46.1623155 C22.7250828,44.8364531 22.9374252,42.8169976 22.0448822,41.2639904 L25.5665941,37.7422785 C26.9930769,38.8506882 28.7822158,39.5130908 30.724488,39.5130908 C32.6667601,39.5130908 34.455899,38.8506882 35.8823818,37.7422785 L39.4040937,41.2639904 C38.511727,42.8171738 38.7238932,44.8366293 40.0495794,46.1623155 C40.8420306,46.9547668 41.8827727,47.3509043 42.923691,47.3509043 C43.9646093,47.3509043 45.0053514,46.9545906 45.7978027,46.1623155 C47.382529,44.5775892 47.382529,41.9989947 45.7978027,40.4140922 C44.4721165,39.088406 42.4524847,38.8762398 40.8994776,39.7686065 L37.3777657,36.2468946 C38.4861754,34.8204119 39.148578,33.0312729 39.148578,31.0890008 C39.148578,30.0279937 38.9494519,29.0129794 38.5897914,28.0769106 L42.9753228,25.7286328 C43.4571022,26.2423075 44.0643486,26.6261098 44.7567082,26.8356327 C45.145797,26.9533462 45.5435205,27.0116743 45.9389531,27.0116743 C46.5994173,27.0116743 47.2537138,26.8488491 47.8523255,26.528309 C48.8095404,26.0158677 49.5096536,25.1613878 49.824026,24.1222317 C50.1383985,23.0830756 50.0289673,21.9834767 49.5165261,21.0264381 L49.5165261,21.0264381 Z M46.8536995,24.6639251 C46.3946522,24.9099251 45.8672325,24.9622617 45.3687124,24.8112431 C44.8701924,24.6605769 44.4603099,24.3245297 44.2144861,23.8653062 C43.9684861,23.4062589 43.9163257,22.8786629 44.0671681,22.3801429 C44.2178342,21.8816229 44.5538815,21.4717404 45.013105,21.2259166 C45.3003399,21.0720785 45.6141838,20.994014 45.9310233,20.994014 C46.1206336,20.994014 46.3114774,21.0220326 46.4980921,21.0784223 C46.9966121,21.2290885 47.4064946,21.5651358 47.6523184,22.0243593 C47.8983184,22.4834065 47.9504788,23.0108263 47.7996364,23.5093463 C47.6489702,24.0082188 47.312923,24.4181013 46.8536995,24.6639251 L46.8536995,24.6639251 Z M37.0336124,31.0888246 C37.0336124,34.5677156 34.2032028,37.3981252 30.7243117,37.3981252 C27.2454207,37.3981252 24.4150111,34.5677156 24.4150111,31.0888246 C24.4150111,27.6099336 27.2454207,24.7795239 30.7243117,24.7795239 C34.2032028,24.7795239 37.0336124,27.6099336 37.0336124,31.0888246 L37.0336124,31.0888246 Z M28.7744622,15.0646388 C28.7744622,13.9893581 29.6492072,13.1147893 30.7243117,13.1147893 C31.7994163,13.1147893 32.6741613,13.9895343 32.6741613,15.0646388 C32.6741613,16.1397434 31.7994163,17.0144883 30.7243117,17.0144883 C29.6492072,17.0144883 28.7744622,16.1397434 28.7744622,15.0646388 L28.7744622,15.0646388 Z M13.5589398,28.4830926 C13.0560143,28.3475811 12.6360874,28.0242215 12.3763424,27.5729278 C12.1164212,27.1214579 12.0480487,26.5959766 12.1835602,26.0930511 C12.4632178,25.0547761 13.5355028,24.4378377 14.5736017,24.7174953 C15.0765271,24.8530067 15.4964541,25.1761901 15.7563753,25.62766 C16.0161202,26.0791299 16.0844927,26.6046113 15.9489813,27.1075367 C15.6693237,28.1458118 14.5973911,28.7627502 13.5589398,28.4830926 L13.5589398,28.4830926 Z M19.9040127,44.6667554 C19.1439855,45.4269588 17.9067606,45.4269588 17.1463809,44.6667554 C16.3861775,43.906552 16.3861775,42.6695033 17.1463809,41.9091237 C17.5264827,41.529022 18.0258838,41.3390592 18.5252849,41.3390592 C19.0245098,41.3390592 19.523911,41.5291982 19.9040127,41.9091237 C20.6642161,42.6695033 20.6642161,43.906552 19.9040127,44.6667554 L19.9040127,44.6667554 Z M44.3022426,41.9091237 C45.062446,42.6693271 45.062446,43.9063758 44.3022426,44.6667554 C43.5422154,45.4269588 42.3049905,45.4269588 41.5446108,44.6667554 C40.7844074,43.906552 40.7844074,42.6695033 41.5446108,41.9091237 C41.9247125,41.529022 42.4241137,41.3390592 42.9235148,41.3390592 C43.4227397,41.3390592 43.9221408,41.529022 44.3022426,41.9091237 L44.3022426,41.9091237 Z" id="Shape-Copy-2" fill="#333333"></path>
                <rect id="Rectangle" x="0" y="0" width="60" height="60"></rect>
            </g>
        </g>
    </g>
</svg>