<?xml version="1.0" encoding="UTF-8"?>
<svg width="38px" height="40px" viewBox="0 0 38 40" version="1.1" xmlns="http://www.w3.org/2000/svg" xmlns:xlink="http://www.w3.org/1999/xlink">
    <!-- Generator: Sketch 41.2 (35397) - http://www.bohemiancoding.com/sketch -->
    <title>Upload Manually</title>
    <desc>Created with Sketch.</desc>
    <defs></defs>
    <g id="Page-2-Copy" stroke="none" stroke-width="1" fill="none" fill-rule="evenodd">
        <g id="Bexio-option2" transform="translate(-292.000000, -283.000000)">
            <g id="Upload-Manually" transform="translate(281.000000, 274.000000)">
                <g id="Group-13" transform="translate(11.000000, 9.000000)" fill="#333333">
                    <path d="M37.3433658,24.219661 L35.4181157,22.2874576 C34.6558545,21.5233898 33.3273034,21.5233898 32.5650422,22.2874576 L22.1643665,32.7220339 L20.7310721,37.9959322 L20.3803509,38.3477966 C20.1181546,38.6108475 20.1174789,39.0352542 20.3762963,39.300339 L20.3729175,39.3138983 L20.385757,39.3105085 C20.5168551,39.439322 20.6871475,39.5057627 20.8581157,39.5057627 C21.0311111,39.5057627 21.2041066,39.439322 21.3358804,39.3071186 L21.6872775,38.9545763 L26.9433658,37.5166102 L37.3433658,27.0820339 C38.1299545,26.2922034 38.1299545,25.0088136 37.3433658,24.219661 L37.3433658,24.219661 Z M23.7247044,33.0738983 L30.6465497,26.1294915 L33.5138142,29.0061017 L26.5919688,35.9505085 L23.7247044,33.0738983 L23.7247044,33.0738983 Z M23.1151657,34.379661 L25.2911241,36.5627119 L22.2988434,37.3816949 L23.1151657,34.379661 L23.1151657,34.379661 Z M36.3878363,26.1227119 L34.4693437,28.0474576 L31.6020793,25.1708475 L33.5205718,23.2461017 C33.7719558,22.9932203 34.2105263,22.9932203 34.4619103,23.2461017 L36.3878363,25.1783051 C36.6473294,25.4379661 36.6473294,25.8623729 36.3878363,26.1227119 L36.3878363,26.1227119 Z" id="Shape"></path>
                    <path d="M4.82157245,24.4067797 L22.391423,24.4067797 C22.7644444,24.4067797 23.0671865,24.1037288 23.0671865,23.7288136 C23.0671865,23.3538983 22.7644444,23.0508475 22.391423,23.0508475 L4.82157245,23.0508475 C4.44855101,23.0508475 4.14580897,23.3538983 4.14580897,23.7288136 C4.14580897,24.1037288 4.44855101,24.4067797 4.82157245,24.4067797 L4.82157245,24.4067797 Z" id="Shape"></path>
                    <path d="M19.6883691,27.1186441 L4.82157245,27.1186441 C4.44855101,27.1186441 4.14580897,27.4216949 4.14580897,27.7966102 C4.14580897,28.1715254 4.44855101,28.4745763 4.82157245,28.4745763 L19.6883691,28.4745763 C20.0613905,28.4745763 20.3641326,28.1715254 20.3641326,27.7966102 C20.3641326,27.4216949 20.0620663,27.1186441 19.6883691,27.1186441 L19.6883691,27.1186441 Z" id="Shape"></path>
                    <path d="M4.82157245,12.2033898 L13.6064977,12.2033898 C13.9795192,12.2033898 14.2822612,11.900339 14.2822612,11.5254237 C14.2822612,11.1505085 13.9795192,10.8474576 13.6064977,10.8474576 L4.82157245,10.8474576 C4.44855101,10.8474576 4.14580897,11.1505085 4.14580897,11.5254237 C4.14580897,11.900339 4.44855101,12.2033898 4.82157245,12.2033898 L4.82157245,12.2033898 Z" id="Shape"></path>
                    <path d="M13.6064977,32.5423729 C13.9795192,32.5423729 14.2822612,32.239322 14.2822612,31.8644068 C14.2822612,31.4894915 13.9795192,31.1864407 13.6064977,31.1864407 L4.82157245,31.1864407 C4.44855101,31.1864407 4.14580897,31.4894915 4.14580897,31.8644068 C4.14580897,32.239322 4.44855101,32.5423729 4.82157245,32.5423729 L13.6064977,32.5423729 L13.6064977,32.5423729 Z" id="Shape"></path>
                    <path d="M24.4187135,14.9152542 L4.82157245,14.9152542 C4.44855101,14.9152542 4.14580897,15.2183051 4.14580897,15.5932203 C4.14580897,15.9681356 4.44855101,16.2711864 4.82157245,16.2711864 L24.4187135,16.2711864 C24.7917349,16.2711864 25.0944769,15.9681356 25.0944769,15.5932203 C25.0944769,15.2183051 24.7924107,14.9152542 24.4187135,14.9152542 L24.4187135,14.9152542 Z" id="Shape"></path>
                    <path d="M4.82157245,20.3389831 L14.2822612,20.3389831 C14.6552827,20.3389831 14.9580247,20.0359322 14.9580247,19.6610169 C14.9580247,19.2861017 14.6552827,18.9830508 14.2822612,18.9830508 L4.82157245,18.9830508 C4.44855101,18.9830508 4.14580897,19.2861017 4.14580897,19.6610169 C4.14580897,20.0359322 4.44855101,20.3389831 4.82157245,20.3389831 L4.82157245,20.3389831 Z" id="Shape"></path>
                    <path d="M25.0944769,19.6610169 C25.0944769,19.2861017 24.7917349,18.9830508 24.4187135,18.9830508 L19.6883691,18.9830508 C19.3153476,18.9830508 19.0126056,19.2861017 19.0126056,19.6610169 C19.0126056,20.0359322 19.3153476,20.3389831 19.6883691,20.3389831 L24.4187135,20.3389831 C24.7924107,20.3389831 25.0944769,20.0359322 25.0944769,19.6610169 L25.0944769,19.6610169 Z" id="Shape"></path>
                    <path d="M17.4651072,20.1416949 C17.5867446,20.0135593 17.6610786,19.8366102 17.6610786,19.660339 C17.6610786,19.4840678 17.5867446,19.3077966 17.4651072,19.1789831 C17.2083171,18.9281356 16.7555556,18.9281356 16.5055231,19.1789831 C16.3838856,19.3077966 16.3095517,19.4840678 16.3095517,19.660339 C16.3095517,19.8440678 16.3838856,20.0135593 16.5055231,20.1416949 C16.6339181,20.2644068 16.8096166,20.3383051 16.9853151,20.3383051 C17.1610136,20.3383051 17.3373879,20.2644068 17.4651072,20.1416949 L17.4651072,20.1416949 Z" id="Shape"></path>
                    <path d="M16.9853151,37.9661017 L1.44275504,37.9661017 L1.44275504,5.42372881 L6.17309942,5.42372881 L6.17309942,6.77966102 C6.17309942,7.15457627 6.47584146,7.45762712 6.8488629,7.45762712 L22.391423,7.45762712 C22.7644444,7.45762712 23.0671865,7.15457627 23.0671865,6.77966102 L23.0671865,5.42372881 L27.7975309,5.42372881 L27.7975309,20.3389831 C27.7975309,20.7138983 28.1002729,21.0169492 28.4732943,21.0169492 C28.8463158,21.0169492 29.1490578,20.7138983 29.1490578,20.3389831 L29.1490578,4.74576271 C29.1490578,4.37084746 28.8463158,4.06779661 28.4732943,4.06779661 L23.0671865,4.06779661 L23.0671865,2.71186441 C23.0671865,2.33694915 22.7644444,2.03389831 22.391423,2.03389831 L18.3368421,2.03389831 L18.3368421,0.677966102 C18.3368421,0.303050847 18.0341001,0 17.6610786,0 L11.5792073,0 C11.2061858,0 10.9034438,0.303050847 10.9034438,0.677966102 L10.9034438,2.03389831 L6.8488629,2.03389831 C6.47584146,2.03389831 6.17309942,2.33694915 6.17309942,2.71186441 L6.17309942,4.06779661 L0.766991553,4.06779661 C0.39397011,4.06779661 0.0912280702,4.37084746 0.0912280702,4.74576271 L0.0912280702,38.6440678 C0.0912280702,39.0189831 0.39397011,39.3220339 0.766991553,39.3220339 L16.9853151,39.3220339 C17.3583366,39.3220339 17.6610786,39.0189831 17.6610786,38.6440678 C17.6610786,38.2691525 17.3590123,37.9661017 16.9853151,37.9661017 L16.9853151,37.9661017 Z M12.2549708,1.3559322 L16.9853151,1.3559322 L16.9853151,2.71186441 L16.9853151,4.06779661 L12.2549708,4.06779661 L12.2549708,2.71186441 L12.2549708,1.3559322 L12.2549708,1.3559322 Z M7.52462638,3.38983051 L10.9034438,3.38983051 L10.9034438,4.74576271 C10.9034438,5.12067797 11.2061858,5.42372881 11.5792073,5.42372881 L17.6610786,5.42372881 C18.0341001,5.42372881 18.3368421,5.12067797 18.3368421,4.74576271 L18.3368421,3.38983051 L21.7156595,3.38983051 L21.7156595,4.74576271 L21.7156595,6.10169492 L7.52462638,6.10169492 L7.52462638,4.74576271 L7.52462638,3.38983051 L7.52462638,3.38983051 Z" id="Shape"></path>
                </g>
                <rect id="Rectangle" x="0" y="0" width="60" height="60"></rect>
            </g>
        </g>
    </g>
</svg>